<svg xmlns="http://www.w3.org/2000/svg" viewBox="7.031 7.031 85.938 85.938"><path fill="#515151" d="M50 7.031C26.306 7.031 7.031 26.306 7.031 50c0 23.693 19.275 42.969 42.969 42.969 23.692 0 42.969-19.276 42.969-42.969S73.693 7.031 50 7.031z"/><path fill="#FFF" d="M50.518 72.385c-2.739 0-5.122-1.111-6.75-3.163-1.517-1.909-2.163-4.427-1.773-6.907l1.869-11.903-.431.222a4.4 4.4 0 0 1-4.024-7.826l8.133-4.181a4.396 4.396 0 0 1 4.589.347 4.402 4.402 0 0 1 1.769 4.249l-3.195 20.35c.641-.067 2.292-.471 5.367-2.606a4.397 4.397 0 0 1 6.123 1.102 4.397 4.397 0 0 1-1.102 6.124c-3.842 2.672-7.137 4.039-10.071 4.183-.17.005-.339.009-.504.009z"/><circle fill="#FFF" cx="51.255" cy="30.052" r="4.911"/></svg>