<svg xmlns="http://www.w3.org/2000/svg" xml:space="preserve" id="Layer_1" x="0" y="0" style="enable-background:new 0 0 430.8 572.6" version="1.1" viewBox="0 0 430.8 572.6"><style>.st0{fill:#414042}</style><g id="Layer_4"><path d="m31.5 485.7-8.7-14.9c-.4 0-1 .1-1.8.1H9.6v14.8H0v-50.4h21c6.5 0 11.6 1.5 15.1 4.5 3.6 3 5.3 7.3 5.3 12.8 0 3.9-.9 7.3-2.6 10.1-1.7 2.8-4.2 4.9-7.5 6.3l11.1 16.7H31.5zM9.6 462.3H21c3.6 0 6.4-.8 8.4-2.4 1.9-1.6 2.9-3.9 2.9-7.1 0-3.1-1-5.4-2.9-6.9s-4.7-2.3-8.4-2.3H9.6v18.7zM116 438c4.1 2.3 7.3 5.4 9.7 9.3s3.5 8.3 3.5 13.1c0 4.8-1.2 9.2-3.5 13.1-2.4 4-5.6 7.1-9.7 9.4s-8.7 3.5-13.6 3.5c-5 0-9.5-1.1-13.6-3.5s-7.3-5.4-9.7-9.4c-2.4-4-3.5-8.3-3.5-13.1 0-4.8 1.2-9.2 3.5-13.1 2.4-3.9 5.6-7 9.7-9.3s8.7-3.4 13.6-3.4 9.5 1.1 13.6 3.4zm-22.1 7.5c-2.6 1.5-4.7 3.6-6.3 6.2-1.5 2.6-2.3 5.5-2.3 8.7s.8 6.1 2.3 8.7c1.6 2.6 3.6 4.7 6.3 6.3 2.6 1.5 5.5 2.3 8.5 2.3s5.8-.8 8.4-2.3 4.6-3.6 6.2-6.3c1.5-2.6 2.3-5.5 2.3-8.7s-.8-6.1-2.3-8.7-3.6-4.7-6.2-6.2-5.4-2.3-8.4-2.3c-3 .1-5.9.8-8.5 2.3zM193.5 445c-2.4-1.2-4.9-1.7-7.4-1.7-3.1 0-6 .7-8.6 2.2s-4.6 3.5-6.1 6.2c-1.5 2.6-2.2 5.5-2.2 8.6s.7 6 2.2 8.6 3.5 4.7 6.1 6.2 5.4 2.3 8.6 2.3c2.4 0 4.8-.5 7.2-1.6s4.6-2.5 6.4-4.4l5.7 6.3c-2.6 2.7-5.7 4.8-9.2 6.4s-7.1 2.3-10.7 2.3c-4.8 0-9.3-1.1-13.3-3.5s-7.2-5.4-9.5-9.4-3.5-8.3-3.5-13.1c0-4.8 1.2-9.2 3.5-13.1 2.4-3.9 5.6-7 9.6-9.3 4.1-2.3 8.6-3.4 13.5-3.4 3.6 0 7.1.7 10.6 2.2s6.4 3.4 8.9 6l-5.6 7.1c-1.7-2.2-3.8-3.8-6.2-4.9zM285.8 485.7h-11.6l-15.8-21.6-7.9 8.7v12.9h-9.6v-50.4h9.6v25.1l22.8-25.1h11.4l-19.4 21.3 20.5 29.1zM320.4 435.3h36.9v8.4H330v12.5h24.5v8.4H330v12.7h28.2v8.4h-37.8v-50.4zM389.7 435.3h41.1v8.6h-15.7v41.8h-9.7v-41.8h-15.7v-8.6zM117 572.1l-4.5-10.7H87.9l-4.5 10.7h-10l22.1-50.4h10l21.8 50.4H117zm-25.6-19h17.7l-8.8-21.2-8.9 21.2zM196.2 526.2c3.5 3 5.2 7.3 5.2 12.8 0 5.8-1.7 10.2-5.2 13.4s-8.4 4.8-14.7 4.8h-11V572h-9.6v-50.4h20.7c6.2.1 11.2 1.6 14.6 4.6zm-6.8 20.2c1.9-1.6 2.9-3.9 2.9-7.1 0-3.1-1-5.4-2.9-6.9s-4.7-2.3-8.4-2.3h-10.5v18.6H181c3.7 0 6.5-.8 8.4-2.3zM272.2 526.2c3.5 3 5.2 7.3 5.2 12.8 0 5.8-1.7 10.2-5.2 13.4s-8.4 4.8-14.7 4.8h-11V572h-9.6v-50.4h20.7c6.2.1 11.1 1.6 14.6 4.6zm-6.8 20.2c1.9-1.6 2.9-3.9 2.9-7.1 0-3.1-1-5.4-2.9-6.9s-4.7-2.3-8.4-2.3h-10.5v18.6H257c3.6 0 6.4-.8 8.4-2.3zM336.5 531c-2.7-.9-5.1-1.3-7.2-1.3-2.3 0-4.1.4-5.5 1.3-1.3.9-2 2.1-2 3.6 0 1.4.5 2.6 1.4 3.5s2.1 1.7 3.5 2.3 3.3 1.3 5.8 2c3.4 1 6.2 2 8.4 3s4 2.5 5.6 4.5c1.5 2 2.3 4.6 2.3 7.8 0 3.1-.8 5.7-2.5 8s-3.9 4-6.8 5.2-6.2 1.8-10 1.8c-3.9 0-7.8-.7-11.5-2.2s-7-3.4-9.8-5.9l4-8.2c2.5 2.4 5.4 4.2 8.6 5.5s6.1 2 8.9 2c2.7 0 4.8-.5 6.3-1.5s2.3-2.4 2.3-4.2c0-1.4-.5-2.6-1.4-3.6s-2.1-1.7-3.6-2.3c-1.4-.6-3.4-1.2-5.9-1.9-3.4-1-6.2-2-8.4-3s-4-2.4-5.5-4.4c-1.5-1.9-2.3-4.5-2.3-7.7 0-2.9.8-5.5 2.3-7.7 1.6-2.2 3.8-3.9 6.6-5.1 2.9-1.2 6.2-1.8 9.9-1.8 3.3 0 6.5.5 9.7 1.4 3.2 1 6 2.3 8.5 3.9l-3.9 8.4c-2.4-1.4-5.1-2.6-7.8-3.4z" class="st0"/><path d="M426 308V154c0-48-56-78.7-56-78.7s-71.3-40.7-112-64.7-84.7 0-84.7 0-62 34-114 64-56.6 78.7-56.6 78.7V310c3.9 22.2 15.2 39.2 28.1 52.1 2.4-.8 5-1.2 7.7-1.2 8.5 0 16.1 4.4 20.4 11 3.3-.6 6.8-1 10.3-1 2.4 0 4.9.2 7.2.5 2.7-2.9 6.5-4.7 10.7-4.7 8.1 0 14.7 6.6 14.7 14.7v.4c1.9 1.4 3.7 3 5.4 4.6 2.1-1.5 4.6-2.4 7.3-2.4 1.5 0 2.8.3 4.1.7 6-7.5 15.1-12.4 25.3-12.8-.6-2.1-1-4.3-1-6.5 0-12.4 10.1-22.5 22.5-22.5 2.2 0 4.4.3 6.4.9 2.1-4.8 6.3-8.3 11.5-9.5-.2-1.1-.4-2.2-.4-3.4 0-4.5 1.8-8.6 4.8-11.6-1.4-1.6-2.4-3.5-2.9-5.6-1.2-2.4-1.8-5.1-1.8-8 0-5.7 2.6-10.8 6.6-14.2.4-.6.8-1.1 1.3-1.6-1.2-1.9-1.9-4.1-1.9-6.6 0-6.9 5.6-12.5 12.5-12.5 6 0 10.9 4.2 12.2 9.8l19.3.8.1.7c5.9 1 10.4 6.1 10.4 12.3 0 3-1 5.7-2.8 7.9 5 3.2 8.3 8.8 8.3 15.1 0 1.8-.3 3.6-.8 5.2 4.7 3.2 7.8 8.7 7.8 14.8v.3c1-.2 2-.3 3-.3 9.9 0 18 8.1 18 18 0 .5 0 1.1-.1 1.6 5.6 2.5 9.6 7.8 10.4 14.1 2.3-3.2 6-5.2 10.2-5.2 6.9 0 12.5 5.6 12.5 12.5 0 1.2-.2 2.3-.5 3.3 1.1-.2 2.3-.3 3.5-.3 3.8 0 7.3 1.2 10.2 3.2 2.3-4.3 6.9-7.2 12.1-7.2 3.3 0 6.3 1.2 8.7 3.1 5.8-6.5 14.2-10.6 23.6-10.6 5.4 0 10.6 1.4 15 3.8 1.8-1.9 4.2-3.2 6.9-3.6 1.9-5.2 6.4-9 12-10C430 328.8 426 308 426 308z" style="fill:#2647d3"/></g><g id="Layer_5"><circle cx="215.3" cy="181.3" r="18.7" style="fill:none"/><path d="M166.8 196.3 122.1 241s-3.7 18.7 11.2 29.8l22.4 3.7h.1c.6-30 5-56 11.2-78.2h-.2z" style="fill:#ffd105"/><path d="m308.6 241.1-44.8-44.8-.1.2c6.1 22.1 10.5 48.2 11.2 78.2h.1l22.4-3.7c14.9-11.2 11.2-29.9 11.2-29.9z" style="fill:#a473b2"/><path d="M196.7 181.3c0-10.3 8.4-18.7 18.7-18.7V103s-31.1 31.1-48.4 93.4c-6.1 22.1-10.5 48.2-11.2 78.2-.1 2.5-.1 5-.1 7.5l59.7 7.4V200c-10.4 0-18.7-8.3-18.7-18.7z" style="fill:#f7912a"/><path d="M215.3 103.1v59.6c10.3 0 18.7 8.4 18.7 18.7s-8.4 18.7-18.7 18.7v89.6l59.7-7.4c0-2.5 0-5-.1-7.5-.6-30-5-56-11.2-78.2-17.2-62.4-48.4-93.5-48.4-93.5z" style="fill:#ed664a"/></g></svg>